<svg width="252" height="63" viewBox="0 0 252 63" fill="none" xmlns="http://www.w3.org/2000/svg">
<path d="M44.5416 0.383789H17.592C7.87621 0.383789 0 8.26 0 17.9758V44.9254C0 54.6412 7.87621 62.5174 17.592 62.5174H44.5416C54.2574 62.5174 62.1336 54.6412 62.1336 44.9254V17.9758C62.1336 8.26 54.2574 0.383789 44.5416 0.383789Z" fill="#7E81F7"/>
<path d="M40.9914 29.0033C40.9914 27.4429 39.7264 26.178 38.1661 26.178C36.6057 26.178 35.3408 27.4429 35.3408 29.0033V33.8986C35.3408 35.459 36.6057 36.7239 38.1661 36.7239C39.7264 36.7239 40.9914 35.459 40.9914 33.8986V29.0033Z" fill="white"/>
<path d="M23.9678 36.7232C23.2185 36.7232 22.4999 36.4256 21.97 35.8957C21.4402 35.3659 21.1425 34.6472 21.1425 33.8979V29.0033C21.1425 28.254 21.4402 27.5353 21.97 27.0055C22.4999 26.4756 23.2185 26.178 23.9678 26.178C24.7171 26.178 25.4358 26.4756 25.9656 27.0055C26.4955 27.5353 26.7931 28.254 26.7931 29.0033V33.8979C26.7931 34.6472 26.4955 35.3659 25.9656 35.8957C25.4358 36.4256 24.7171 36.7232 23.9678 36.7232Z" fill="white"/>
<g opacity="0.3">
<path d="M31.0664 54.7962C18.1936 54.7962 7.72131 44.3253 7.72131 31.451C7.72131 18.5768 18.1936 8.10522 31.0664 8.10522C43.9393 8.10522 54.4122 18.5782 54.4122 31.451C54.4122 44.3239 43.9414 54.7962 31.0664 54.7962ZM31.0664 12.9472C20.8644 12.9486 12.5647 21.2476 12.5647 31.451C12.5647 41.6544 20.8644 49.9535 31.0664 49.9535C41.2684 49.9535 49.5696 41.653 49.5696 31.451C49.5696 21.249 41.2691 12.9486 31.0664 12.9486V12.9472Z" fill="#CBCDFC"/>
</g>
<path d="M31.0664 54.7962C18.1936 54.7962 7.72131 44.3253 7.72131 31.451C7.72131 30.8088 7.97646 30.1928 8.43061 29.7386C8.88477 29.2845 9.50073 29.0293 10.143 29.0293C10.7853 29.0293 11.4012 29.2845 11.8554 29.7386C12.3096 30.1928 12.5647 30.8088 12.5647 31.451C12.5647 41.653 20.8651 49.9535 31.0671 49.9535C41.2691 49.9535 49.5703 41.653 49.5703 31.451C49.5703 21.249 41.2691 12.9486 31.0664 12.9486C30.4242 12.9486 29.8082 12.6935 29.354 12.2393C28.8999 11.7852 28.6447 11.1692 28.6447 10.5269C28.6447 9.88464 28.8999 9.26868 29.354 8.81452C29.8082 8.36037 30.4242 8.10522 31.0664 8.10522C43.9414 8.10522 54.4122 18.5782 54.4122 31.451C54.4122 44.3239 43.9414 54.7962 31.0664 54.7962Z" fill="white"/>
<path d="M104.208 33.729C104.208 40.7554 99.7305 45.1242 92.5584 45.1242C84.7492 45.1242 79.9618 39.8817 79.9618 31.2898C79.9618 22.8253 84.7857 17.5099 92.431 17.5099C98.6383 17.5099 103.207 21.096 103.972 26.5569H98.5109C97.6917 23.8993 95.4891 22.352 92.431 22.352C88.1897 22.352 85.5866 25.7196 85.5866 31.2352C85.5866 36.8599 88.3171 40.2821 92.6494 40.2821C96.2537 40.2821 98.7475 38.1524 98.8567 34.985L98.8749 34.5117H93.1773V30.3796H104.208V33.729ZM117.046 27.995C114.589 27.995 112.859 29.7061 112.677 32.3091H121.233C121.123 29.6515 119.522 27.995 117.046 27.995ZM121.342 38.7349H126.275C125.474 42.5211 122.015 44.8876 117.101 44.8876C110.984 44.8876 107.38 41.0285 107.38 34.5117C107.38 27.9768 111.057 23.9357 117.028 23.9357C122.944 23.9357 126.439 27.7037 126.439 34.0749V35.6949H112.659V35.968C112.732 38.9533 114.479 40.81 117.246 40.81C119.34 40.81 120.778 40.0637 121.342 38.7349ZM131.704 19.6033H137.001V24.5728H141.169V28.7413H137.001V37.7701C137.001 39.5176 137.802 40.3186 139.604 40.3186C140.296 40.3186 140.66 40.3004 141.169 40.2457V44.2869C140.514 44.4143 139.531 44.5235 138.512 44.5235C133.633 44.5235 131.704 42.9398 131.704 39.0261V28.7413H128.573V24.5728H131.704V19.6033ZM144.341 37.1512H149.656C149.911 39.281 152.059 40.6462 155.154 40.6462C158.012 40.6462 160.032 39.2628 160.032 37.2786C160.032 35.6039 158.722 34.6392 155.5 33.9474L152.077 33.2193C147.29 32.2181 144.942 29.7243 144.942 25.7196C144.942 20.7683 148.928 17.5099 154.99 17.5099C160.778 17.5099 164.874 20.7501 165.038 25.4283H159.868C159.613 23.3532 157.684 21.9697 155.026 21.9697C152.278 21.9697 150.457 23.244 150.457 25.2463C150.457 26.8664 151.713 27.7948 154.79 28.4501L157.957 29.1236C163.236 30.234 165.511 32.5094 165.511 36.5869C165.511 41.884 161.452 45.1242 154.862 45.1242C148.601 45.1242 144.541 42.0479 144.341 37.1512ZM187.76 24.3725V44.4507H182.627V41.2287H182.299C181.352 43.5587 179.477 44.8876 176.437 44.8876C172.105 44.8876 169.411 42.1207 169.411 37.4607V24.3725H174.708V36.0954C174.708 38.8623 175.964 40.2821 178.403 40.2821C181.043 40.2821 182.463 38.6257 182.463 35.9498V24.3725H187.76ZM204.074 24.0449C209.153 24.0449 212.266 27.904 212.266 34.4025C212.266 40.8829 209.189 44.7601 204.165 44.7601C201.289 44.7601 199.086 43.5041 198.104 41.3743H197.776V51.1131H192.479V24.3725H197.612V27.6673H197.94C199.032 25.4101 201.307 24.0449 204.074 24.0449ZM202.272 40.3368C205.13 40.3368 206.823 38.116 206.823 34.4025C206.823 30.7255 205.112 28.4865 202.29 28.4865C199.469 28.4865 197.721 30.7437 197.721 34.4207C197.721 38.0978 199.469 40.3368 202.272 40.3368ZM224.666 27.995C222.209 27.995 220.479 29.7061 220.297 32.3091H228.853C228.744 29.6515 227.142 27.995 224.666 27.995ZM228.962 38.7349H233.895C233.094 42.5211 229.636 44.8876 224.721 44.8876C218.605 44.8876 215 41.0285 215 34.5117C215 27.9768 218.677 23.9357 224.648 23.9357C230.564 23.9357 234.059 27.7037 234.059 34.0749V35.6949H220.279V35.968C220.352 38.9533 222.1 40.81 224.866 40.81C226.96 40.81 228.398 40.0637 228.962 38.7349ZM237.813 44.4507V24.3725H242.946V27.5763H243.274C243.802 25.574 245.877 24.0449 248.426 24.0449C249.154 24.0449 250.046 24.1359 250.501 24.2997V29.1236C250.082 28.9598 248.844 28.7959 247.989 28.7959C245.094 28.7959 243.11 30.507 243.11 33.3285V44.4507H237.813Z" fill="#7E81F7"/>
</svg>
